<?xml version="1.0"?><svg version="1.2" baseProfile="tiny-ps" viewBox="0 0 288 288" xmlns="http://www.w3.org/2000/svg" xmlns:xlink="http://www.w3.org/1999/xlink"><title>Creando Riqueza
Your Brand/Organization</title><g><g fill="#f4efec" transform="matrix(.1 0 0 -.1 0 288)"><path d="M0 1440V0h2880v2880H0V1440z"/></g><g fill="#c9c8cb" transform="matrix(.1 0 0 -.1 0 288)"><path d="M0 1440V0h2880v2880H0V1440zm1533 701 67-32v-170l-10 6-10 6v55l-30 48-30 47-53 24-52 25h-100l-50-24-50-23-47-52-46-51-33-78-33-77v-240l23-58c12-32 37-76 54-99l32-42 47-24c25-13 64-26 86-29l39-5 55 16 55 16 40 38 39 38 22 44 22 45-3-65-2-65-48-32c-27-18-68-38-90-45l-42-13-100 1h-100l-47 23c-26 13-67 40-91 61l-43 39-31 58-31 58-11 53c-22 108-9 214 39 317 53 111 139 187 258 226l57 19 90-3 91-4 67-32zm282-11 46-22 24-32 24-31 11-48 10-47-12-47-11-47-42-42-42-41-56-19-56-19 90-140c49-77 105-159 124-182l35-41 30-7c16-4 30-11 30-16v-9h-54c-110 0-102-8-304 305-25 39-50 73-56 77s-41 8-78 8h-68v20h171l46 11 45 12 38 36 38 36 12 45 12 45-6 49-5 48-26 34c-14 19-40 41-57 50l-31 16-59 5-58 6v20l95-6 95-5 45-22zm-495-1064c0-3-7-35-16-72-8-37-13-76-11-86l5-18h-40l7 18c3 9 9 30 12 46l6 29-19 15-19 14 22-7 22-6 7 25 6 25-7 10-6 11h15c9 0 16-2 16-4zm440-5c0-12-20-25-27-18s6 27 18 27c5 0 9-4 9-9zm-1197-26-22-16-12-38-11-38 12-22c6-12 21-26 33-32l22-9-30 5-30 6-12 16c-33 43 10 141 62 143 5 0 0-7-12-15zm82-10c0-10-4-20-10-22l-10-3v50l10-3c6-2 10-12 10-22zm1039 2 11-18-27-24c-34-29-34-35-6-70l21-27-19 3-19 4-15 32-15 33-15-3-15-3v-64h-59l16 13 16 12 12 53 12 52-6 16-6 15 52-3 51-3 11-18zm-920-42-6-14-13 12-13 12 11 7c6 4 14 5 19 2l7-5-5-14zm104 13c7-7 12-20 12-30v-18h-79l-5-9c-4-5-3-16 0-25l6-15 26-4 27-4-32-2-32-1-11 19-10 20 9 23c5 13 17 30 27 38l19 14-12-14c-7-8-13-18-13-23v-8l32 3 31 3 5 13 4 12-24 9-23 10h16c8 1 20-4 27-11zm281-2 12-15-10-37c-6-20-8-41-5-46l5-8h-46l12 8c6 4 14 24 18 45l7 37-12 15-12 15h10c5 0 15-6 21-14zm295-2c9-8 16-24 16-34v-19l-26-28-26-28 16 25 16 24v55l-17 10-18 10 12 1c6 0 19-7 27-16zm312-46-10-58h-41l11 8c7 4 17 25 23 47l11 39-12 7-11 7 19 4 20 4c1-1-4-27-10-58zm432 50c7-7 12-20 12-30v-18h-79l-5-9c-4-5-3-16 0-25l6-15 26-4 27-4-32-2-32-1-11 19-10 20 9 23c5 13 17 30 27 38l19 14-12-14c-7-8-13-18-13-22v-8h29c44 0 50 28 11 43l-15 5 16 1c8 1 20-4 27-11zm-1475-5 7-6-10-12c-5-6-11-28-12-48l-3-37h-37l12 15 12 14 1 41 2 40h11c6 0 14-3 17-7zm223-20c-10-10-19 5-10 18l8 13 4-13c2-7 1-15-2-18zm59-32-7-51h-8c-5 0-11 4-15 9l-5 10 9 5c5 4 12 24 16 47 10 58 18 40 10-20zm88 52 7-6-10-12c-5-6-11-28-12-48l-3-37h-37l12 15 12 14 1 41 2 40h11c6 0 14-3 17-7zm150-1c-6-4-16-20-22-35l-10-27 5-14 6-15 21-4 22-4-27-2-27-1-11 19-10 20 7 18c8 25 34 53 47 53h11l-12-8zm140-23-15-30 5-25 4-24-13 11c-20 16-17 42 7 73 27 34 31 33 12-5zm463 9-16-22v-55l23-4 22-4-26-2-27-1-6 16c-3 9-6 24-6 35v19l20 20c27 27 35 25 16-2zm84 18c0-3-7-35-16-72-8-37-13-72-11-78l4-11h-44l12 20c16 25 37 123 29 136l-5 9h15c9 0 16-2 16-4zm54-45-6-49 18-5 19-5-28-1-27-1 2 55 3 55h26l-7-49zm86 36c0-6-4-28-10-47l-10-34 13-8 12-8h-46l8 23c4 12 8 37 8 55v32h25v-13zm200 9c0-3-4-8-10-11l-10-6v10c0 6 5 11 10 11 6 0 10-2 10-4zm54-8c-4-7-18-27-30-45-13-17-24-36-24-42v-11h-40l18 18c9 10 28 34 42 55 14 20 29 37 33 37h8l-7-12zm80-3c-4-8-10-15-15-15h-8l5 15c4 8 10 15 15 15h8l-5-15zm55-36c-5-22-7-44-4-50l6-9h-8c-4 0-14 4-22 9l-13 9 10 6c6 3 13 24 17 46l7 40 8-5 8-5-9-41zM938 939c-10-5-18-16-18-24v-14l18-4 17-5-27-1-28-1v39l18 10c9 6 22 10 27 10 6 0 2-4-7-10zm1450 0c-10-5-18-16-18-24v-14l18-4 17-5-27-1-28-1v39l18 10c9 6 22 10 27 10 6 0 2-4-7-10zm-73-38c-3-6-11-11-16-11h-10l13 14c14 16 24 13 13-3zm-715 114c-5-14-10-31-10-36v-9h49l16 16 16 16-3 17-3 16-28 3-27 3-10-26z"/></g><g fill="#9b9ca3" transform="matrix(.1 0 0 -.1 0 288)"><path d="M0 1440V0h2880v2880H0V1440zm1488 723c23-8 58-23 77-34l35-21v-168h-20v20c0 32-28 92-58 123-36 38-67 54-124 62l-46 7-57-17-57-16-48-48-48-48-30-60-30-59-17-80-17-79 7-65c4-35 16-92 26-126l19-61 41-47 41-47 41-20 40-21h112l43 17 42 17 40 45 39 45 12 35 11 35 10-10 9-9-7-61-6-61-38-25c-54-36-104-55-174-66l-61-10-64 11-63 10-47 24-47 23-43 43c-48 49-78 101-97 174l-14 50v75c1 90 12 145 46 216l25 54 51 55 50 55 73 36 73 36 53 8c64 9 138 3 197-17zm328-31c124-63 150-220 54-321-23-23-114-71-137-71-7 0-13-3-13-6 0-10 168-273 202-316l29-37 34-11c19-6 35-16 35-21v-9h-127l-34 23-34 23-106 164-107 165-76 3-76 3v26l103 5 104 5 46 22 47 23 27 45 26 45 1 57 1 56-21 40-21 40-38 22-39 21-58 7-58 7v21l98-5 97-5 41-21zM1305 985l-16-75 6-10 6-10h-43l5 14c3 8 9 31 13 50l6 36-16 6-17 6-19-17-20-18v-67h45l-14-9-13-9-19 5-19 5-6 24-6 24 16 25c9 13 25 29 37 36l21 11 18-5 18-5 5 27 5 26-10 6-11 7 19 4 19 4 3-8c2-5-4-42-13-83zm455 70v-15h-15c-16 0-20 12-8 23 11 12 23 8 23-8zm-1129-5c23-13 25-33 4-50l-15-13-7 7-7 6 12 12c16 16 15 25-3 32l-15 5-24-10-24-11-11-25c-6-13-11-39-11-58v-34l20-11 20-11 32 16 33 16-24-21-23-20h-22c-12 0-32 7-44 16l-22 15v75l16 23c15 20 65 50 87 51 5 0 17-5 28-10zm1048-9 14-9-7-26c-3-14-10-26-14-26s-13-4-20-9l-14-8 16-31c8-17 21-32 28-35l13-5-26-1-25-1-17 35c-20 42-34 45-43 9l-7-26 14-9 14-9h-76l13 14 14 14 13 57 13 58-13 8-14 9h55c30 0 61-4 69-9zm-914-50c0-8-6-16-14-19l-14-5 8 13 7 12-18-4-18-3-12-40-11-40 11-7 11-8-35 1-35 1 12 5 13 5 10 39c6 22 8 43 5 48l-5 9 12 5c7 2 27 3 43 3l30-2v-13zm99 13 16-6v-48h-81l3-22 3-23 33 1c39 2 41-3 6-17l-27-10-23 16-24 15v42l29 29c31 30 39 33 65 23zm134-7 11-13-9-38c-5-21-6-45-3-53l6-15-19 10-19 9-20-7c-39-14-62 19-33 48l12 12h54l6 16c8 20-1 34-20 34h-15l-8-22-8-21-7 12-8 12 12 14 12 15h46l10-13zm157-49v-58h-59l16 13 16 12 6 38 7 38-28-3-27-3-12-40-11-40 11-7 11-8-35 1-35 1 12 5 13 5 10 39c6 22 8 43 5 48l-5 9 12 5c7 2 31 3 53 3l40-1v-57zm286 52 19-11v-24c0-37-10-55-42-71l-30-15-24 16-24 15v23c1 25 17 49 45 65 25 14 32 15 56 2zm323-22c-5-18-8-45-9-60v-28h-47l11 14c6 7 12 31 14 52l2 39 10 7c6 4 14 8 18 8h9l-8-32zm144-48c-10-41-16-81-13-87l4-13h-51l9 13c6 6 13 20 17 31l6 18-21-5-22-6-19 10-18 10v60l24 24 25 25 38-3 39-2-18-75zm276 74 16-6v-48h-80v-53l35 6c41 7 45 0 9-14l-27-10-23 16-24 15v15c0 26 22 63 44 73 26 13 30 14 50 6zm115-46-42-53 22-3 23-4 13 19 14 18-6-22-5-23h-103l10 8c17 12 65 80 65 91 0 6-7 11-15 11h-14l-11-21c-7-11-14-18-17-16-2 3 0 15 7 26l11 21h89l-41-52zm150 38 12-15-10-36-10-36 6-16 6-15-19 10-19 9-20-7c-39-14-62 19-33 48l12 12h54l6 16c8 20-1 34-20 34h-15l-8-22-8-21-8 13-8 13 18 14c24 17 50 17 64-1zm-470-28c-5-18-9-41-9-50v-18h19c10 0 24 7 32 16l13 15v35l1 34h33l-10-36c-5-20-7-45-5-55l5-18-32 1c-17 0-35-1-41-2-5-1-16-2-24-1l-14 1 6 49 6 50-12 5-12 4 27 1 27 1-10-32zm-372 65c-2-4-7-20-11-35l-6-28h48l12 15 12 14-4 18-3 18-22 3c-11 2-23 0-26-5zm-791-49c-22-21-20-24 14-24h30v40h-14c-8 0-22-7-30-16zm111-51c-4-3-7-12-7-20v-13h39l11 20 11 20h-24c-13 0-27-3-30-7zm466 61c-7-3-17-21-24-41l-11-35 14-14 14-15 16 6c20 8 41 56 36 82l-3 18-15 2c-8 1-20-1-27-3zm453-7-18-13-1-34-2-35h50l12 38c18 55 0 74-41 44zm290-3c-22-21-20-24 14-24h30v40h-14c-8 0-22-7-30-16zm241-51c-4-3-7-12-7-20v-13h39l11 20 11 20h-24c-13 0-27-3-30-7z"/></g><g fill="#5f6471" transform="matrix(.1 0 0 -.1 0 288)"><path d="M0 1440V0h2880v2880H0V1440zm1505 719c29-11 65-29 79-40l26-20v-159h-28l-12 51-12 50-25 30c-14 16-44 39-66 51l-41 20h-63l-63-1-51-27-50-28-28-35c-48-62-80-124-97-191l-16-65 5-100c6-119 17-158 60-221l32-48 42-30 42-29 56-5 55-5 44 13 44 12 35 29 36 29 27 55c14 30 30 55 35 55h9v-129l-32-24c-18-14-51-34-74-45l-41-21-68-12-68-12-69 12-70 11-40 21c-23 12-63 43-90 70l-49 49-25 55-24 55-11 70-11 70 11 73 11 72 36 73 35 72 49 49 49 49 64 32 64 31 49 9 49 9 63-5 63-5 54-20zm318-28 48-23 27-41 27-41v-144l-30-43-30-43-50-26c-28-15-61-29-73-32l-23-6 92-144c50-78 106-158 123-176l30-33 30-7c16-4 31-13 34-20l4-12h-151l-35 31-35 30-102 159-101 159-77 3-76 3v30l115 6 115 5 25 11c14 6 37 24 51 39l27 29 12 39 12 38-4 55-5 54-19 26c-11 15-32 36-46 46l-27 20-62 6-62 6-5 13-4 14 98-4 99-3 48-24zm-497-1068c-3-10-12-49-21-87l-16-69 12-7 11-7-9-6c-13-8-95-3-111 7l-12 7v60l25 24 24 25h63l-4 30-4 29 15 4c9 3 20 5 24 6l8 1-5-17zm434-8v-15h-30v30h30v-15zm-1122-4 14-8-4-24-3-24-18-3-18-4 7 26 6 26h-51l-20-26-21-27v-28c0-15 3-34 6-43l6-16h57l6 10c3 6 12 10 18 10l12-1-24-19-23-20h-27c-32 0-44 8-60 38l-12 23 11 34 11 34 30 26 31 25h26c15 0 33-4 40-9zm1050-33 3-27-25-16-25-17 15-29c8-16 20-29 26-29h12l-11-11-11-11-20 11-20 11-10 30c-14 37-28 38-37 3l-7-27 11-4 11-4-6-9c-3-5-18-9-35-9h-29v10c0 6 4 10 9 10h9l16 67 17 66-13 9-13 8 65-2 65-3 3-27zm-918-24c0-7-5-16-11-20l-11-7-7 11-7 11-14-9-15-9v-91h-55v10c0 6 4 10 9 10s13 19 19 43l11 42-11 4-10 3 12 8c6 4 29 7 51 7h39v-13zm110 1 12-15-6-15-5-15h-81v-41l16-6 17-6 18 11c30 19 36 13 10-8-28-24-54-25-75-4l-16 15v50l25 24 24 25h49l12-15zm118 6 13-8-7-39c-4-21-7-47-6-56 1-19-13-24-23-8l-6 9-25-11-25-12-15 15-15 15 7 17 6 17 27 6c14 3 32 7 39 10l12 3v41h-32l-5-20c-6-22-23-27-23-7 0 31 47 48 78 28zm157-58v-63h-55v9c0 5 5 11 11 13 5 2 14 20 19 41l8 38-14 6c-8 3-20 3-28 0l-13-5-7-35-6-34 6-17 6-16h-62v10c0 6 4 10 9 10s13 19 19 43l11 42-11 4-10 3 12 8c7 4 33 7 59 6l46-1v-62zm300 43 16-24-16-32-16-31-24-11-25-11-25 11-25 12v61l25 24 24 25h51l15-24zm309-13c-4-21-8-50-7-65v-28h-22c-12 0-25 3-28 7l-7 6 15 11 15 11 4 45c3 25 5 46 5 48 1 1 8 2 17 2h16l-8-37zm161 18c-2-9-11-44-19-78l-14-61 11-11 11-11h-39l-40 1 18 13c9 7 17 20 17 28v15l-24-4-24-5-16 25-17 24 10 26c5 14 20 32 32 41l23 16 38-2 38-1-5-16zm60-8c-3-16-9-38-12-50l-5-23 17-6 17-7 13 14c7 8 16 29 20 47l7 32-14 1h-13l24 10c13 5 26 8 28 5 2-2-2-25-8-52l-12-48 11-4 12-4-6-9c-3-5-14-9-25-9h-19v24l-12-12c-16-16-43-15-57 2l-12 15 10 35 9 36-11 7-11 6 20 8c10 4 23 8 28 8l8 1-7-27zm215 7 11-20-6-10-6-10h-79v-41l16-6 17-6 18 11c30 19 36 13 10-8-28-24-54-25-75-4l-16 15v50l25 24 24 25h50l11-20zm140 10c0-5-4-10-8-10-5 0-23-20-41-45l-32-45h40l10 17 9 18 7-7 7-6-12-21-11-21h-99v10c0 6 4 10 10 10 11 0 70 77 70 91v8l-17-6c-10-4-23-14-30-22l-12-16-1 16c0 8 5 20 12 27l12 12h86v-10zm113-30c-3-71-6-90-14-90-4 0-10 4-14 10l-6 9-25-11-25-12-16 17-17 16 18 20 18 20 27 3 26 3 3 23 3 22h-33l-5-20c-3-11-9-20-14-20-13 0-11 24 3 38l13 13 30-3 30-3-2-35zm-1222 11-21-21v-51l16-6 16-6 13 14 14 14 3 34 3 34-12 4-12 4-20-20zm375 44c-3-9-6-25-6-36v-19h13c7 0 21 6 31 13l18 13-4 20-3 19-21 3-21 3-7-16zm-784-37c-19-19-14-28 14-28h25l-3 17c-4 21-21 26-36 11zm108-63-13-15 7-7 7-7 16 10c9 6 19 16 21 22l4 12h-15c-8 0-20-7-27-15zm457 57-17-19v-64l22 3 23 3 14 29 14 29-10 16c-14 23-28 23-46 3zm459-1-17-19-2-28-2-29 22-3 23-3 10 27c21 55-1 92-34 55zm296 7c-19-19-14-28 14-28h25l-3 17c-4 21-21 26-36 11zm238-63c-7-9-10-18-7-21 9-9 45 6 51 21l5 15h-18c-10 0-24-7-31-15z"/></g><g fill="#1c263e" transform="matrix(.1 0 0 -.1 0 288)"><path d="M0 1440V0h2880v2880H0V1440zm1465 734c33-8 79-26 103-40l42-25v-170l-17 3-18 3-6 37-6 37-26 39-26 40-43 21-44 21h-50c-27 0-66-5-86-10l-36-10-50-45-49-44-36-73-37-73-10-54c-28-149 0-287 78-389l25-33 39-20 39-20 48-6 48-5 51 16 50 17 40 43 40 43 13 36 13 37h26v-135l-48-32c-26-18-67-40-92-49l-45-17-100-1-100-1-61 28-61 28-46 47-46 47-24 50c-103 210-29 482 165 606l52 34 65 17c37 9 89 17 116 17l51 1 59-16zm325-26c41-12 95-50 115-82 8-12 19-44 24-71l9-48-13-51-13-51-46-42-46-42-38-11c-20-7-41-16-45-20l-8-7 88-139c48-76 104-155 124-176l36-38h54l-3-17-4-18-71 1h-71l-34 26-33 26-105 166-105 165-77 1h-78v38l118 4 117 4 33 17 32 18 28 41 27 42v145l-21 28-20 28-44 23-44 22h-95l-6 10-6 10 7 11 7 12 86-7c47-4 102-12 121-18zm-465-1090c-2-13-11-52-19-88l-15-65 10-3c5-2 9-8 9-12v-9l-52 1h-53l-12 10-13 10v67l26 20 27 21h60l-6 29-6 30 12 5c7 2 18 5 25 5l12 1-5-22zm436-3c0-5-9-11-21-13l-20-3v9c0 5 3 12 7 16 10 9 34 3 34-9zm-1110-11 13-16-11-16c-5-10-18-18-27-20l-17-4 7 26 6 26h-49l-17-19-17-19-6-36-6-36 13-15 12-15h22c12 0 27 5 34 12l12 12 7-8 8-8-19-14-20-14h-66l-20 20-20 20v21c0 12 7 36 16 55l17 35 26 14c14 8 40 14 57 15h32l13-16zm1030-3 23-18-17-27c-10-14-22-26-27-26-16 0-11-26 10-53 25-32 25-37 0-37h-20l-27 43-26 42-9-30-8-30 10-3c6-2 10-8 10-13v-9h-40c-42 0-49 6-26 24l15 11 14 57 15 58-9 6c-5 3-9 9-9 15v9h98l23-19zm-911-51v-18l-15-6-15-5v33l-17-17-18-17v-80h-55v9c0 5 5 11 11 13l11 4 4 49c2 28 3 51 4 52 0 1 20 1 45 1h45v-18zm108 8c7-7 12-20 12-30v-18h-90v-41l16-6 17-6 18 11c28 18 34 14 14-8l-18-20h-53l-12 12-12 12v57l25 24 24 25h24c12 0 28-5 35-12zm127-55v-61l-55 1-55 2v49l40 15c50 18 49 17 42 35l-6 16-16-6c-8-3-15-12-15-20s-4-14-10-14h-10v38l13 6c6 3 26 4 42 3l30-2v-62zm150 0 1-63h-56v9c0 5 4 11 10 13 5 2 12 22 16 46l7 42h-14c-8 0-20-4-27-9l-13-8-2-47-2-46h-55v9c0 5 5 11 11 13l11 4 4 49c2 28 3 51 4 52 0 1 24 1 53 0l52-2v-62zm299 51c9-8 16-24 16-35v-21l-29-29-29-29h-52l-15 24-16 23 10 26c12 30 48 57 78 57h22l15-16zm316-2c0-9-5-33-10-52l-10-35 10-3c5-2 10-8 10-13v-9h-70v9c0 5 5 11 11 13 5 2 14 21 19 43l9 40-10 3-9 4 6 9c3 5 14 9 25 9h19v-18zm160 12c0-2-7-33-15-69l-16-67 6-19 6-19h-74l16 18c10 10 17 24 17 31v12l-11-6-10-7-24 6-25 6-6 24-6 24 13 24c7 12 19 28 28 35l16 12 43-1c23-1 42-2 42-4zm60-7c0-6-4-28-10-47l-10-34 8-8 9-9 16 7 17 6 9 32 8 31-9 12-9 11 21 7c30 10 33 3 22-52l-11-48 10-3c5-2 9-7 9-12v-8h-120l-2 12c-1 6-2 31-2 56l-1 45 10 7c6 4 16 8 23 8h12v-13zm210-2 12-15-6-15-5-15h-81v-41l16-6 17-6 18 11c28 18 34 14 14-8l-18-20h-53l-12 12-12 12v57l25 24 24 25h49l12-15zm140 2c-8-7-30-31-48-54l-34-43h41l10 17c12 23 22 13 14-15l-5-22h-108v10c0 6 4 10 10 10 5 0 23 20 40 45l31 45h-15c-8 0-19-8-25-17l-9-18-7 7-7 6 7 21 6 21h57l57-1-15-12zm115-54v-63h-35v24l-12-12c-15-15-54-16-63-2-3 6-3 19 0 30l6 20 40 11 39 12v19c0 20-1 21-24 12l-15-6 6-14 5-14h-32v38l13 6c6 3 26 4 42 3l30-2v-62zm-1218 44-17-12-6-32-6-33 16-6 17-7 10 10c5 5 13 23 18 41l9 31-12 10-13 11-16-13zm368 22c-8-36-6-40 23-33l21 6 6 19c8 24-1 39-25 39h-18l-7-31zm-777-20c-10-6-18-14-18-19v-10h19c11 0 23 5 27 11l6 11-8 8-9 9-17-10zm103-63-12-14 11-7 11-7 14 12c8 7 15 16 15 21 0 14-26 10-39-5zm449 45c-5-11-10-31-10-45v-26h39l11 19c5 11 10 31 10 45v26h-39l-11-19zm472 13-22-15v-70l22 3 22 3 9 38 9 39-9 9-9 9-22-16zm296 5c-10-6-18-14-18-19v-10h19c11 0 23 5 27 11l6 11-8 8-9 9-17-10zm235-64c-8-22 4-30 22-15 19 16 19 30 0 30h-16l-6-15z"/></g><g fill="#060f2c" transform="matrix(.1 0 0 -.1 0 288)"><path d="M0 1440V0h2880v2880H0V1440zm1473 764 62-16 60 7 60 6 73-11 73-10 37-19c48-25 87-66 106-113l16-37v-116l-19-40c-22-48-63-91-113-116-20-10-39-23-42-27l-5-9 57-92c31-51 73-113 92-139l36-47 42-23 42-23v-58l-40-11-40-11-50 7-51 7-32 21-32 21-105 158c-58 87-112 162-120 167l-15 10h-114l-15 21-14 21 5 17c3 9 13 22 21 29l16 12h171l34 10 34 10 28 26 27 26 12 43 12 44-7 37-7 38-33 33-33 33h-62v-62c0-35-3-73-6-86l-6-22-25-6-25-7-13 14c-8 8-22 38-32 68l-18 54-38 31-39 31h-146l-44-31-43-32-32-46c-17-25-41-71-53-102l-20-56-7-73-6-74 13-63c22-114 75-190 154-223l40-17 52 7 53 6 39 29 40 29 29 53 28 53 23 3 23 4 15-12 14-12v-136l-31-30c-41-40-121-77-198-93l-62-12-71 6-72 6-62 31-61 30-48 47-47 48-24 47c-13 26-31 73-39 105l-15 57v132l15 59c9 33 27 84 41 113l26 53 53 57 53 58 53 29c29 15 78 36 108 46l56 18h64l63 1 61-16zm-143-1131c-1-5-9-44-20-88l-19-80 10-3c5-2 9-7 9-12v-9h-110l-16 23-15 23 10 25c12 32 34 49 74 57l32 7-1 25-1 24 11 7c14 10 36 10 36 1zm440-12c0-5-7-14-15-21l-16-13-11 11-10 10 6 11c8 13 46 15 46 2zm-1119-17 13-16-11-16-10-17-22-3-21-3v10c0 6 5 11 10 11 6 0 10 7 10 15v15h-40l-20-20c-36-36-40-94-7-114l17-11 30 17 30 17v-28l-19-11c-11-5-35-10-55-10h-35l-15 22c-29 42-17 94 32 135l27 23h73l13-16zm1027 0c29-20 28-38-4-63l-26-20 7-20c3-10 12-25 20-31 20-17 19-30-3-30h-19l-15 18c-8 9-18 25-21 35-9 25-24 21-29-8l-5-25h8c5 0 9-4 9-10v-10h-80v9c0 5 6 11 14 14l14 6 12 55 11 56-6 20-6 20h97l22-16zm-910-57c-2-11-9-22-15-25l-13-4v36l-14-14c-8-8-17-30-21-47l-7-33h23l-6-10-6-10h-35c-38 0-42 7-17 25l16 12 1 46 1 46 48-1h48l-3-21zm106 17 16-6v-48l-22-2c-13-1-32-2-42-2-23-2-29-15-17-35l10-15 27 12c14 7 29 10 32 7 10-9-32-34-58-35h-26l-12 12-12 12v53l21 27 20 26h24c13 0 30-3 39-6zm129-51-2-53h36l7 39c3 22 3 46 0 54l-6 15 60 1h60l6-14c2-7 0-31-6-51l-10-38 11-4c6-2 11-8 11-13v-9h-42l-43 1 17 13 17 13 7 41 7 42h-15c-9 0-21-7-28-15l-13-15-1-40-1-40-90 2-90 3v49l23 12 23 11-16 7-16 6 11 20 11 21 37-3 37-3-2-52zm451 41c9-8 16-24 16-35v-21l-29-29-29-29h-52l-16 25-16 24 7 20c3 11 18 30 32 41l26 20h46l15-16zm311-39-13-55h9c5 0 9-4 9-10v-10h-70v10c0 6 4 10 9 10s13 19 19 43l11 42-9 3-10 4 6 9c3 5 16 9 28 9h23l-12-55zm165 46c0-3-7-35-15-70l-15-64 5-18 6-19h-71v9c0 5 7 11 15 15 8 3 15 11 15 19v14l-29-5-29-4-12 22-11 21 6 30 7 29 21 15 21 15 43-2c24-1 43-4 43-7zm55-33c-4-24-8-47-9-52-2-13 17-17 34-6l15 9v81l18 6c28 9 31-1 19-54l-11-47 10-3c5-2 9-8 9-13v-9l-62 3-63 2v110l10 7c6 4 16 8 23 8h14l-7-42zm209 36 16-6v-48l-22-2c-13-1-32-2-43-2l-20-1-3-18-3-17 14-6 15-6 23 13 23 12 4-12c2-6 9-11 16-11h13l32 45 32 45h-15c-8 0-19-7-24-16l-9-17-10 4-11 4 9 23 8 22h111v-10c0-5-6-10-12-10-11 0-54-54-66-82-7-16 21-7 34 9l12 18 7-7 7-6-7-21-6-21h-117l-5 13-4 12-14-12-13-13h-26c-14 0-31 5-38 12l-12 12v60l22 23 21 23h23c12 0 29-3 38-6zm261-61v-61l-55 1-55 2v49l23 12 23 11-16 7-16 6 11 20 11 21 37-3 37-3v-62zM1338 2193c12-2 32-2 45 0l22 4h-90l23-4zm-80-10c6-2 18-2 25 0l12 5h-50l13-5zm170 0c6-2 18-2 25 0l12 5h-50l13-5zm290-20c6-2 18-2 25 0l12 5h-50l13-5zm-390-30c7-3 16-2 19 1 4 3-2 6-13 5l-19-1 13-5zm70 0c7-3 16-2 19 1 4 3-2 6-13 5l-19-1 13-5zm240-10c6-2 18-2 25 0l12 5h-50l13-5zm222-7c0-2 8-10 18-17l17-14-14 18c-13 16-21 21-21 13zm-57-161v-40l4 23c2 12 2 30 0 40l-5 17 1-40zm-191 5v-25l5 13c2 6 2 18 0 25l-5 12v-25zm247-167-14-18 18 14c9 7 17 15 17 17 0 8-8 3-21-13zm-351-30c29-2 74-2 100 0l47 3h-200l53-3zm-67-29 1-19 5 13c3 7 2 16-1 19-3 4-6-2-5-13zm52-21c20-2 54-2 75 0l37 4h-150l38-4zm437-297c0-2 8-10 18-17l17-14-14 18c-13 16-21 21-21 13zm68-43c7-3 16-2 19 1 4 3-2 6-13 5l-19-1 13-5zm-695-10c9-2 25-2 35 0l17 5h-70l18-5zm585-30c7-3 16-2 19 1 4 3-2 6-13 5l-19-1 13-5zm-690-20c6-2 18-2 25 0l12 5h-50l13-5zm170 0c6-2 18-2 25 0l12 5h-50l13-5zm-100-10c12-2 32-2 45 0l22 4h-90l23-4zm-48-343-12-30 6-15 5-15h31l10 26c6 14 10 34 10 45v19h-38l-12-30zm390 54c-13-34-13-34 14-34h25l6 21 7 21-13 9c-22 14-29 11-39-17zm-793-31c-4-3-7-9-7-13v-7l25 5c14 2 25 8 25 13 0 10-34 12-43 2zm133-8v-15h30v30h-30v-15zm-13-42c-4-3-7-12-7-20v-14l20 11c11 6 20 15 20 20 0 11-23 13-33 3zm443 38c-5-11-10-31-10-45v-26h39l11 19c5 11 10 31 10 45v26h-39l-11-19zm460-2c-13-23-10-61 5-66 18-5 32 12 39 50l7 37h-40l-11-21zm295 11-6-10h51v20h-19c-11 0-23-4-26-10zm265-5v-15h30v30h-30v-15zm-13-42c-4-3-7-12-7-20v-14l20 11c11 6 20 15 20 20 0 11-23 13-33 3z"/></g></g></svg>